<svg width="61" height="99" viewBox="0 0 61 99" fill="none" xmlns="http://www.w3.org/2000/svg">
<path d="M60.9969 63.9479C60.9969 63.9479 61.5891 57.0783 54.7195 52.2222C48.9159 48.0768 47.0209 46.0633 40.862 38.1278C45.4812 44.9974 49.6266 53.4066 49.6266 53.4066C54.0089 62.5266 54.9564 68.6855 51.9954 76.5026C49.8635 82.3061 45.3627 87.1622 39.5591 89.2941C30.3208 92.8473 21.3193 90.597 15.1604 85.2672V62.2897H6.86954V56.9599H29.0179V62.2897H20.4902C20.4902 62.2897 20.4902 83.8459 20.4902 85.2672H29.7286C39.2038 85.2672 46.9025 77.5685 46.9025 68.0933C46.9025 58.618 39.2038 50.9194 29.7286 50.9194H12.1994C16.8185 43.4577 30.2023 20.5986 29.0179 10.7681C18.4767 43.6945 0 48.3137 0 63.9479C2.60569 64.0663 4.61917 66.1982 4.61917 68.8039C4.61917 71.2912 2.72412 73.3046 0.355307 73.66C0.829069 76.1472 1.53971 78.3976 2.60567 80.648C4.1454 79.9373 5.922 79.8189 7.93549 81.2402C8.29081 81.4771 8.52771 81.8324 8.76459 82.1877C10.1859 84.6749 9.47525 87.1622 7.81708 88.5835C10.3043 91.3076 13.2653 93.558 16.5817 95.2161C17.5292 92.9658 20.1349 91.6629 22.7406 92.6104C23.0959 92.7289 23.4512 92.9658 23.6881 93.2026C25.9385 95.2161 26.0569 96.8743 25.7016 98.2956C27.2413 98.5325 28.8995 98.6509 30.4392 98.6509C32.4527 98.6509 34.3478 98.414 36.2428 98.0587C36.0059 96.519 36.1244 94.8608 39.2038 92.7289C39.4407 92.492 39.796 92.3736 40.0329 92.3736C42.2833 91.8998 44.2967 93.0842 45.2443 94.7424C48.0868 93.2027 50.5741 91.1892 52.8245 88.9388C50.811 87.636 49.745 84.6749 51.5216 81.9508C51.7585 81.5955 52.1138 81.2402 52.4691 81.0033C54.6011 79.582 56.8514 79.8189 58.3912 81.0033C59.4571 78.6345 60.2862 76.1472 60.76 73.66C58.2727 73.4231 56.4961 71.4096 56.4961 68.8039C56.4961 66.1982 58.5096 64.0663 60.9969 63.9479Z" fill="white"/>
<path d="M29.1352 1.76651C29.1352 1.76651 27.2402 24.2702 56.8503 48.7874C56.8503 48.7874 44.0587 37.4171 41.2162 23.7964C38.2551 10.4127 31.3856 -5.33992 29.1352 1.76651Z" fill="white"/>
</svg>
