<svg width="148" height="47" viewBox="0 0 148 47" fill="none" xmlns="http://www.w3.org/2000/svg">
<path d="M40.793 4.253H35.8054C35.4379 4.253 35.1754 3.938 35.1754 3.62299V0.94544C35.1754 0.630434 35.4379 0.31543 35.8054 0.31543H50.0857C50.4532 0.31543 50.7157 0.630434 50.7157 0.94544V3.62299C50.7157 3.938 50.4532 4.253 50.0857 4.253H45.0981V22.6283C45.0981 22.9433 44.7831 23.2583 44.4681 23.2583H41.423C41.108 23.2583 40.793 22.9433 40.793 22.6283V4.253Z" fill="#00A651"/>
<path d="M54.1284 0.94544C54.1284 0.630434 54.3909 0.31543 54.7584 0.31543H64.1036C68.0412 0.31543 71.2437 3.46548 71.2437 7.35055C71.2437 10.3431 69.2487 12.8107 66.4136 13.9657L70.8762 22.2608C71.0862 22.6808 70.8762 23.2058 70.2987 23.2058H66.8861C66.5711 23.2058 66.4136 23.0483 66.3611 22.8908L62.0036 14.2282H58.381V22.6283C58.381 22.9433 58.066 23.2583 57.751 23.2583H54.7584C54.3909 23.2583 54.1284 22.9433 54.1284 22.6283V0.94544ZM63.7361 10.7631C65.4686 10.7631 66.9912 9.24059 66.9912 7.40306C66.9912 5.67053 65.4686 4.2005 63.7361 4.2005H58.381V10.7106H63.7361V10.7631Z" fill="#00A651"/>
<path d="M75.9166 0.94544C75.9166 0.630434 76.2316 0.31543 76.5466 0.31543H79.5916C79.9066 0.31543 80.2216 0.630434 80.2216 0.94544V22.6283C80.2216 22.9433 79.9066 23.2583 79.5916 23.2583H76.5466C76.2316 23.2583 75.9166 22.9433 75.9166 22.6283V0.94544Z" fill="#00A651"/>
<path d="M89.2515 4.253H84.2639C83.8964 4.253 83.6339 3.938 83.6339 3.62299V0.94544C83.6339 0.630434 83.8964 0.31543 84.2639 0.31543H98.5966C98.9641 0.31543 99.2266 0.630434 99.2266 0.94544V3.62299C99.2266 3.938 98.9641 4.253 98.5966 4.253H93.609V22.6283C93.609 22.9433 93.294 23.2583 92.979 23.2583H89.934C89.619 23.2583 89.304 22.9433 89.304 22.6283V4.253H89.2515Z" fill="#00A651"/>
<path d="M112.509 0C119.072 0 124.322 5.2501 124.322 11.8127C124.322 18.3753 119.072 23.5729 112.509 23.5729C105.947 23.5729 100.749 18.3753 100.749 11.8127C100.749 5.2501 105.947 0 112.509 0ZM112.509 19.3204C116.657 19.3204 120.07 15.9603 120.07 11.8127C120.07 7.66514 116.657 4.25258 112.509 4.25258C108.362 4.25258 105.002 7.71764 105.002 11.8127C105.002 15.9078 108.362 19.3204 112.509 19.3204Z" fill="#00A651"/>
<path d="M128.575 0.577514C128.575 0.262508 128.89 0 129.205 0H130.045L143.695 14.4903H143.748V0.945019C143.748 0.630013 144.01 0.315009 144.378 0.315009H147.37C147.685 0.315009 148 0.630013 148 0.945019V22.9954C148 23.3104 147.685 23.5729 147.37 23.5729H146.583L132.88 8.55766H132.827V22.6279C132.827 22.9429 132.565 23.2579 132.197 23.2579H129.205C128.89 23.2579 128.575 22.9429 128.575 22.6279V0.577514Z" fill="#00A651"/>
<path d="M52.1334 27.6678C52.1334 27.4053 52.3434 27.1953 52.6059 27.1953H58.486C63.5261 27.1953 67.6737 31.2904 67.6737 36.3305C67.6737 41.4231 63.5261 45.5181 58.486 45.5181H52.6059C52.3434 45.5181 52.1334 45.3081 52.1334 45.0456V27.6678ZM58.066 43.6806C62.3711 43.6806 65.4687 40.6356 65.4687 36.278C65.4687 31.9729 62.3711 28.9278 58.066 28.9278H54.1285V43.6806H58.066Z" fill="#AFB0B2"/>
<path d="M71.7166 27.6678C71.7166 27.4053 71.9266 27.1953 72.1891 27.1953H73.2391C73.5016 27.1953 73.7116 27.4053 73.7116 27.6678V44.9931C73.7116 45.2556 73.5016 45.4656 73.2391 45.4656H72.1891C71.9266 45.4656 71.7166 45.2556 71.7166 44.9931V27.6678Z" fill="#AFB0B2"/>
<path d="M79.1188 27.6678C79.1188 27.4053 79.3289 27.1953 79.5914 27.1953H89.934C90.1965 27.1953 90.4065 27.4053 90.4065 27.6678V28.4028C90.4065 28.6653 90.1965 28.8753 89.934 28.8753H81.1139V35.2805H88.6215C88.884 35.2805 89.094 35.4905 89.094 35.753V36.488C89.094 36.7505 88.884 36.9605 88.6215 36.9605H81.1139V43.6281H89.934C90.1965 43.6281 90.4065 43.8381 90.4065 44.1006V44.8356C90.4065 45.0981 90.1965 45.3081 89.934 45.3081H79.5914C79.3289 45.3081 79.1188 45.0981 79.1188 44.8356V27.6678Z" fill="#AFB0B2"/>
<path d="M93.4518 42.7354C93.5568 42.5779 93.7142 42.4204 93.8192 42.2629C94.0818 41.9479 94.3443 41.7379 94.7118 42.0529C94.8693 42.2104 96.8118 44.0479 99.1219 44.0479C101.222 44.0479 102.639 42.7354 102.639 41.1604C102.639 39.3753 101.064 38.2728 98.0718 37.0128C95.1843 35.7528 93.4518 34.5978 93.4518 31.6052C93.4518 29.8202 94.8693 26.9326 99.0169 26.9326C101.589 26.9326 103.479 28.2451 103.479 28.2451C103.637 28.2976 103.952 28.6126 103.637 29.1377C103.532 29.2952 103.427 29.4527 103.322 29.6102C103.112 29.9777 102.849 30.0827 102.429 29.8202C102.272 29.7152 100.592 28.6126 99.0169 28.6126C96.2343 28.6126 95.3943 30.3977 95.3943 31.5002C95.3943 33.2327 96.7068 34.2827 98.9118 35.1753C102.429 36.5928 104.739 37.9578 104.739 41.0029C104.739 43.7329 102.167 45.728 99.0693 45.728C95.9718 45.728 93.8717 43.9429 93.5567 43.6279C93.3992 43.4704 93.1367 43.2604 93.4518 42.7354Z" fill="#AFB0B2"/>
<path d="M108.572 27.6678C108.572 27.4053 108.782 27.1953 109.045 27.1953H119.387C119.65 27.1953 119.86 27.4053 119.86 27.6678V28.4028C119.86 28.6653 119.65 28.8753 119.387 28.8753H110.567V35.2805H118.075C118.337 35.2805 118.547 35.4905 118.547 35.753V36.488C118.547 36.7505 118.337 36.9605 118.075 36.9605H110.567V43.6281H119.387C119.65 43.6281 119.86 43.8381 119.86 44.1006V44.8356C119.86 45.0981 119.65 45.3081 119.387 45.3081H109.045C108.782 45.3081 108.572 45.0981 108.572 44.8356V27.6678Z" fill="#AFB0B2"/>
<path d="M124.112 27.6678C124.112 27.4053 124.322 27.1953 124.585 27.1953H125.582C125.845 27.1953 126.055 27.4053 126.055 27.6678V43.7331H133.615C133.877 43.7331 134.087 43.9431 134.087 44.2056V44.9406C134.087 45.2031 133.877 45.4131 133.615 45.4131H124.532C124.27 45.4131 124.06 45.2031 124.06 44.9406V27.6678H124.112Z" fill="#AFB0B2"/>
<path d="M22.7854 2.46777L45.6758 46.2011" stroke="#AFB0B2" stroke-miterlimit="10"/>
<path d="M27.038 30.818C27.038 30.818 27.3005 27.773 24.2554 25.6204C21.6829 23.7829 20.8429 22.8904 18.1128 19.3728C20.1604 22.4179 21.9979 26.1455 21.9979 26.1455C23.9404 30.188 24.3604 32.9181 23.0479 36.3832C22.1029 38.9557 20.1079 41.1082 17.5353 42.0532C13.4402 43.6283 9.45016 42.6308 6.72012 40.2682V30.083H3.04505V27.7205H12.8627V30.083H9.08266C9.08266 30.083 9.08266 39.6382 9.08266 40.2682H13.1777C17.3778 40.2682 20.7904 36.8557 20.7904 32.6556C20.7904 28.4555 17.3778 25.0429 13.1777 25.0429H5.40759C7.45513 21.7354 13.3877 11.6027 12.8627 7.24512C8.19015 21.8404 0 23.8879 0 30.818C1.15502 30.8705 2.04753 31.8156 2.04753 32.9706C2.04753 34.0731 1.20752 34.9656 0.157496 35.1231C0.3675 36.2256 0.682503 37.2232 1.15501 38.2207C1.83752 37.9057 2.62504 37.8532 3.51755 38.4832C3.67506 38.5882 3.78007 38.7457 3.88507 38.9032C4.51508 40.0057 4.20008 41.1082 3.46507 41.7382C4.56759 42.9458 5.88011 43.9433 7.35013 44.6783C7.77014 43.6808 8.92515 43.1033 10.0802 43.5233C10.2377 43.5758 10.3952 43.6808 10.5002 43.7858C11.4977 44.6783 11.5502 45.4133 11.3927 46.0433C12.0752 46.1483 12.8102 46.2008 13.4927 46.2008C14.3853 46.2008 15.2253 46.0958 16.0653 45.9383C15.9603 45.2558 16.0128 44.5208 17.3778 43.5758C17.4828 43.4708 17.6403 43.4183 17.7453 43.4183C18.7428 43.2083 19.6353 43.7333 20.0554 44.4683C21.3154 43.7858 22.4179 42.8933 23.4154 41.8957C22.5229 41.3182 22.0504 40.0057 22.8379 38.7982C22.9429 38.6407 23.1004 38.4832 23.2579 38.3782C24.2029 37.7482 25.2005 37.8532 25.883 38.3782C26.3555 37.3282 26.723 36.2256 26.933 35.1231C25.8305 35.0181 25.0429 34.1256 25.0429 32.9706C25.0429 31.8156 25.9355 30.8705 27.038 30.818Z" fill="url(#paint0_linear_571_69)"/>
<path d="M12.9146 3.25472C12.9146 3.25472 12.0746 13.2299 25.1998 24.0976C25.1998 24.0976 19.5297 19.0575 18.2697 13.0199C16.9572 7.08728 13.9121 0.104661 12.9146 3.25472Z" fill="url(#paint1_linear_571_69)"/>
<defs>
<linearGradient id="paint0_linear_571_69" x1="-0.0134402" y1="26.7141" x2="27.0661" y2="26.7141" gradientUnits="userSpaceOnUse">
<stop offset="0.2809" stop-color="#FDC70C"/>
<stop offset="0.6685" stop-color="#F3903F"/>
<stop offset="0.8876" stop-color="#ED683C"/>
</linearGradient>
<linearGradient id="paint1_linear_571_69" x1="12.8893" y1="13.3086" x2="25.1802" y2="13.3086" gradientUnits="userSpaceOnUse">
<stop stop-color="#FFF33B"/>
<stop offset="0.0594872" stop-color="#FFE029"/>
<stop offset="0.1303" stop-color="#FFD217"/>
<stop offset="0.2032" stop-color="#FEC90E"/>
<stop offset="0.2809" stop-color="#FDC70C"/>
<stop offset="0.6685" stop-color="#F3903F"/>
<stop offset="0.8876" stop-color="#ED683C"/>
<stop offset="1" stop-color="#E93E3A"/>
</linearGradient>
</defs>
</svg>
